<?xml version="1.0"?>
<svg xmlns="http://www.w3.org/2000/svg" height="512px" viewBox="-62 0 444 444.904" width="512px"><path d="m166.003906 152-5.550781-17.046875-5.554687 17.046875h-17.78125l14.421874 10.464844-5.542968 17.015625 14.457031-10.480469 14.453125 10.480469-5.542969-17.015625 14.425781-10.464844zm0 0" fill="#FFFFFF"/><path d="m160.453125 48c-61.855469 0-112 50.144531-112 112s50.144531 112 112 112 112-50.144531 112-112c-.066406-61.828125-50.171875-111.933594-112-112zm44.902344 173.320312-44.902344-32.519531-44.90625 32.558594 17.175781-52.742187-44.933594-32.617188h55.496094l17.167969-52.710938 17.167969 52.710938h55.496094l-44.9375 32.574219zm0 0" fill="#FFFFFF"/><path d="m248.453125 444.902344v-44.902344h-56v-16h56v-71.550781c-9.242187 4.046875-19.558594 4.941406-29.359375 2.550781-5.671875-1.152344-11.5-1.292969-17.21875-.414062-5.144531 2.039062-9.890625 4.96875-14.023438 8.652343-7.46875 7.171875-17.105468 11.660157-27.398437 12.761719-10.296875-1.101562-19.933594-5.589844-27.402344-12.761719-4.132812-3.683593-8.878906-6.613281-14.023437-8.652343-5.71875-.867188-11.542969-.726563-17.214844.414062-9.800781 2.382812-20.113281 1.488281-29.359375-2.542969v39.542969h56v16h-56v76.902344l80-26.671875v-58.230469h16v58.230469zm0 0" fill="#FFFFFF"/><path d="m311.003906 177.648438c4.792969-4.84375 8.078125-10.972657 9.449219-17.648438-1.375-6.671875-4.652344-12.800781-9.441406-17.648438-5.058594-5.738281-8.9375-12.414062-11.421875-19.648437-1.523438-7.726563-1.523438-15.671875 0-23.398437 1.640625-6.359376 1.453125-13.050782-.546875-19.304688-4.472657-4.953125-10.269531-8.523438-16.703125-10.296875-7.375-2.492187-14.1875-6.40625-20.054688-11.519531-5.117187-5.871094-9.03125-12.6875-11.527344-20.0625-1.773437-6.441406-5.347656-12.238282-10.304687-16.714844-6.261719-1.996094-12.957031-2.183594-19.320313-.542969-7.726562 1.519531-15.675781 1.519531-23.402343 0-7.230469-2.488281-13.90625-6.371093-19.644531-11.421875-4.839844-4.789062-10.964844-8.070312-17.632813-9.441406-6.675781 1.371094-12.808594 4.652344-17.648437 9.449219-5.742188 5.050781-12.417969 8.933593-19.648438 11.421875-7.722656 1.519531-15.667969 1.519531-23.390625 0-6.359375-1.652344-13.058594-1.464844-19.3125.542968-4.957031 4.46875-8.527344 10.265626-10.289063 16.699219-2.5 7.371094-6.414062 14.183594-11.527343 20.054688-5.871094 5.117187-12.6875 9.03125-20.066407 11.527343-6.433593 1.773438-12.230468 5.347657-16.703124 10.304688-2.003907 6.257812-2.199219 12.957031-.558594 19.320312 1.519531 7.722657 1.519531 15.667969 0 23.390626-2.488282 7.234374-6.367188 13.90625-11.417969 19.648437-4.789063 4.839844-8.070313 10.96875-9.4375 17.640625 1.371094 6.671875 4.652344 12.800781 9.4375 17.648438 5.058594 5.738281 8.941406 12.414062 11.425781 19.648437 1.519532 7.726563 1.519532 15.671875 0 23.398437-1.640625 6.359376-1.453125 13.050782.542969 19.304688 4.476563 4.953125 10.269531 8.523438 16.703125 10.296875 7.375 2.492187 14.1875 6.40625 20.058594 11.519531 5.113281 5.871094 9.03125 12.6875 11.527344 20.0625 1.769531 6.441406 5.34375 12.238282 10.304687 16.714844 6.257813 1.996094 12.957031 2.183594 19.320313.542969 4.519531-.683594 9.078124-1.078125 13.648437-1.175781 3.285156-.039063 6.566406.351562 9.75 1.167968 7.230469 2.488282 13.90625 6.371094 19.648437 11.421875 4.835938 4.792969 10.960938 8.074219 17.632813 9.449219 6.671875-1.371094 12.804687-4.652344 17.648437-9.449219 5.738282-5.050781 12.414063-8.933593 19.644532-11.421875 7.726562-1.515625 15.671875-1.515625 23.394531 0 6.359375 1.640625 13.054687 1.453125 19.3125-.542968 4.953125-4.46875 8.523437-10.265626 10.285156-16.699219 2.5-7.371094 6.417969-14.183594 11.53125-20.054688 5.871094-5.117187 12.6875-9.03125 20.0625-11.527343 6.4375-1.773438 12.230469-5.347657 16.703125-10.304688 2.003906-6.257812 2.199219-12.957031.5625-19.320312-1.523437-7.722657-1.523437-15.667969 0-23.390626 2.484375-7.230468 6.359375-13.902343 11.40625-19.640624zm-103.113281 101.222656c-39.429687 15.734375-84.09375 10.894531-119.238281-12.917969-35.144532-23.8125-56.195313-63.5-56.199219-105.953125-.007813-64.449219 47.902344-118.847656 111.835937-126.988281 63.929688-8.136719 123.941407 32.523437 140.082032 94.917969 16.140625 62.394531-16.621094 127.054687-76.480469 150.941406zm0 0" fill="#FFFFFF"/></svg>
